<?xml version="1.0" standalone="no"?>
<!DOCTYPE svg PUBLIC "-//W3C//DTD SVG 20010904//EN"
 "http://www.w3.org/TR/2001/REC-SVG-20010904/DTD/svg10.dtd">
<svg version="1.0" xmlns="http://www.w3.org/2000/svg"
 width="920.000000pt" height="920.000000pt" viewBox="0 0 920.000000 920.000000"
 preserveAspectRatio="xMidYMid meet">

<g transform="translate(0.000000,920.000000) scale(0.100000,-0.100000)"
fill="#000000" stroke="none">
<path d="M4977 8258 c-145 -180 -897 -1162 -895 -1169 3 -9 824 -588 842 -594
6 -2 27 17 47 43 19 26 227 295 462 599 235 303 427 555 427 560 -1 7 -298
218 -766 546 l-83 57 -34 -42z"/>
<path d="M2770 7143 c-62 -82 -197 -255 -298 -386 -101 -131 -183 -239 -181
-241 2 -2 103 2 224 8 121 7 222 11 223 10 2 -2 -44 -66 -103 -142 -84 -110
-108 -149 -112 -181 -8 -58 25 -259 48 -298 13 -21 230 -179 662 -484 353
-249 689 -486 747 -528 144 -103 157 -107 300 -86 175 24 169 22 236 91 l61
63 146 7 c81 4 147 4 147 0 0 -3 -16 -38 -35 -77 -69 -136 -118 -315 -131
-479 -18 -233 63 -487 211 -658 56 -65 169 -167 185 -167 6 0 28 43 49 95 78
195 224 463 379 702 l76 116 41 -21 c27 -14 59 -21 100 -22 196 -1 297 213
168 356 l-35 38 22 28 c12 16 74 85 137 155 166 183 372 370 536 485 l77 55
-22 17 c-13 10 -48 31 -78 48 -249 138 -556 161 -836 62 -164 -58 -334 -157
-467 -271 -32 -28 -60 -49 -62 -47 -3 4 -75 265 -75 272 0 2 18 27 39 56 21
28 42 67 45 85 4 19 -2 88 -13 155 -23 142 -36 165 -134 234 -1550 1094 -1432
1013 -1485 1021 -55 9 -275 -28 -315 -53 -18 -11 -80 -81 -137 -156 -80 -104
-106 -131 -111 -118 -3 10 -28 105 -55 211 -27 105 -51 192 -54 192 -3 0 -57
-66 -120 -147z"/>
<path d="M2375 4895 c-253 -327 -461 -600 -462 -607 -1 -7 156 -124 350 -260
194 -136 384 -270 424 -297 l71 -51 149 192 c82 106 290 375 463 598 172 223
313 410 314 417 1 11 -828 603 -843 603 -3 0 -213 -268 -466 -595z"/>
<path d="M6932 4831 c-50 -32 -57 -57 -43 -147 16 -97 17 -243 2 -319 -79
-398 -404 -685 -829 -731 -113 -12 -153 -85 -102 -184 31 -60 85 -84 171 -76
312 29 656 230 841 491 144 202 209 409 207 659 -1 203 -13 248 -82 300 -39
29 -123 33 -165 7z"/>
<path d="M6387 4769 c-22 -13 -57 -81 -57 -110 0 -13 5 -49 12 -81 22 -106
-15 -222 -97 -303 -57 -58 -124 -90 -223 -109 -45 -9 -95 -22 -110 -30 -58
-30 -80 -77 -62 -131 25 -77 130 -118 251 -97 231 40 433 216 502 437 26 85
30 249 8 305 -21 51 -58 98 -91 115 -33 17 -106 19 -133 4z"/>
<path d="M3330 2830 c-447 -46 -745 -257 -866 -614 -13 -38 -31 -108 -40 -155
-19 -101 -21 -327 -4 -419 72 -395 325 -632 765 -719 68 -13 139 -18 295 -18
216 1 329 15 545 68 l90 22 3 503 2 502 -27 1 c-16 0 -194 1 -398 1 l-370 1
-3 -146 -3 -147 211 0 210 0 0 -245 c0 -135 -2 -245 -4 -245 -2 0 -28 -5 -57
-10 -95 -19 -304 -14 -392 9 -93 24 -194 76 -259 131 -67 58 -142 176 -174
273 -36 110 -44 288 -19 404 73 337 353 529 746 510 129 -6 286 -35 384 -71
36 -13 65 -23 66 -22 2 4 27 311 25 313 -8 9 -182 46 -268 57 -137 19 -353 26
-458 16z"/>
<path d="M6591 2829 c-295 -36 -487 -180 -546 -409 -24 -93 -17 -263 14 -343
60 -154 187 -248 491 -362 158 -60 211 -87 261 -132 53 -48 72 -87 72 -148 0
-141 -144 -237 -355 -237 -130 1 -270 33 -381 89 -27 13 -50 23 -52 21 -6 -7
-37 -329 -33 -334 9 -9 170 -45 268 -59 184 -28 432 -14 575 32 74 24 154 66
214 113 136 108 205 319 167 512 -40 207 -168 321 -498 444 -179 67 -240 97
-285 138 -53 47 -66 82 -61 155 9 132 112 217 275 228 95 7 247 -16 355 -53
39 -13 72 -23 73 -21 2 3 35 279 35 294 0 43 -413 94 -589 72z"/>
<path d="M4497 2793 c-2 -5 -3 -424 -3 -933 l1 -925 198 -3 197 -2 0 355 0
355 118 0 c64 0 158 5 207 10 385 44 595 249 595 585 0 310 -187 494 -560 550
-102 16 -745 22 -753 8z m697 -308 c141 -44 216 -153 203 -296 -15 -171 -139
-249 -396 -249 l-111 0 0 287 0 286 128 -6 c70 -4 149 -13 176 -22z"/>
</g>
</svg>
