<?xml version="1.0" encoding="utf-8"?>
<!-- Generator: Adobe Illustrator 19.0.0, SVG Export Plug-In . SVG Version: 6.00 Build 0)  -->
<svg version="1.1" id="layer" xmlns="http://www.w3.org/2000/svg" xmlns:xlink="http://www.w3.org/1999/xlink" x="0px" y="0px"
	 viewBox="-153 -46 652 652" style="enable-background:new -153 -46 652 652;" xml:space="preserve">
<style type="text/css">
	.st0{clip-path:url(#SVGID_2_);fill:url(#SVGID_3_);}
	.st1{fill:#0B367F;}
</style>
<g>
	<defs>
		<path id="SVGID_1_" d="M48.1,175.1c-181.8,7.1-177.1,40.7-177.1,40.7c-0.3,1.2-0.4,2.4-0.5,3.6v0.9c1.1,46.5,175.2,117,175.2,117
			c-123-67.4-106.6-92.5-106.6-92.5c48.6-79.1,462.3-40,462.3-40c-82.4-26.5-224.5-30.4-301-30.4C68.6,174.5,48.1,175.1,48.1,175.1"
			/>
	</defs>
	<clipPath id="SVGID_2_">
		<use xlink:href="#SVGID_1_"  style="overflow:visible;"/>
	</clipPath>
	
		<linearGradient id="SVGID_3_" gradientUnits="userSpaceOnUse" x1="-171.4482" y1="473.4919" x2="-151.6805" y2="473.4919" gradientTransform="matrix(4.2039 6.9007 6.9007 -4.2039 -2529.7239 3233.2346)">
		<stop  offset="0" style="stop-color:#FFFFFF"/>
		<stop  offset="0.4234" style="stop-color:#92A5C6"/>
		<stop  offset="0.8223" style="stop-color:#315593"/>
		<stop  offset="1" style="stop-color:#0B367F"/>
	</linearGradient>
	<polygon class="st0" points="256.6,-72.1 477.8,290.9 11.2,575.1 -209.9,212.2 	"/>
</g>
<g>
	<path class="st1" d="M149.4,225.3l2.4,29.8h-2.6c-2.5-7.4-5.6-12.9-9.5-16.7c-5.6-5.4-12.8-8.1-21.5-8.1c-12,0-21.1,4.7-27.3,14.2
		c-5.2,8-7.8,17.5-7.8,28.6c0,9,1.7,17.2,5.2,24.6c3.5,7.4,8,12.8,13.6,16.3c5.6,3.4,11.4,5.2,17.3,5.2c3.5,0,6.8-0.4,10.1-1.3
		c3.2-0.9,6.4-2.2,9.4-3.9v-27.3c0-4.8-0.4-7.9-1.1-9.3c-0.7-1.5-1.8-2.6-3.3-3.4c-1.5-0.8-4.2-1.1-8-1.1v-2.6h36.5v2.6h-1.7
		c-3.6,0-6.1,1.2-7.4,3.6c-0.9,1.7-1.4,5.1-1.4,10.2v28.8c-5.3,2.9-10.6,5-15.8,6.3c-5.2,1.3-11,2-17.3,2c-18.2,0-32-5.8-41.4-17.5
		c-7.1-8.8-10.6-18.8-10.6-30.3c0-8.3,2-16.2,5.9-23.8c4.7-9,11.2-16,19.4-20.8c6.9-4,15-6,24.4-6c3.4,0,6.5,0.3,9.3,0.8
		c2.8,0.6,6.8,1.8,11.9,3.7c2.6,1,4.3,1.5,5.2,1.5c0.9,0,1.6-0.4,2.3-1.2c0.6-0.8,1-2.4,1.1-4.8H149.4z"/>
	<path class="st1" d="M202,234.3c3.7-0.9,6.7-1.3,9-1.3c3.9,0,7.3,0.9,10.4,2.6c3,1.7,5.4,4.3,7.1,7.8c1.6,3.5,2.5,7.3,2.5,11.4
		c0,5.9-1.7,10.8-5.2,14.5c-3.5,3.7-7.6,5.6-12.4,5.6c-1.3,0-2.9-0.1-4.8-0.4c-1.9-0.2-4.1-0.6-6.5-1V234.3z M210.4,279
		c2.6,0.3,5.1,0.5,7.4,0.5c9.3,0,16.4-2.4,21.5-7.2c5.1-4.8,7.6-11.1,7.6-18.7c0-5.7-1.7-10.5-5-14.7c-3.3-4.1-7.5-7-12.3-8.8
		c-4.9-1.7-11.5-2.6-20-2.6H175v2.6h3.6c3.6,0,6.3,1,8.1,3c1.2,1.4,1.9,5.1,1.9,11.1V305c0,5.4-0.5,8.8-1.4,10.2
		c-1.7,2.6-4.6,3.9-8.6,3.9H175v2.6h40.5v-2.6h-3.6c-3.6,0-6.2-1-8-3c-1.3-1.4-1.9-5.1-1.9-11.1v-27.5
		C205,278.2,207.8,278.7,210.4,279"/>
	<path class="st1" d="M324.8,225.3V258h-2.6c-0.8-6.3-2.3-11.2-4.5-15c-2.2-3.7-5.3-6.7-9.3-8.8c-4-2.2-8.1-3.3-12.4-3.3
		c-4.8,0-8.8,1.5-12,4.4c-3.2,2.9-4.7,6.3-4.7,10c0,2.9,1,5.5,3,7.8c2.9,3.5,9.7,8.1,20.6,13.9c8.8,4.7,14.9,8.3,18.1,10.9
		c3.2,2.5,5.7,5.5,7.5,8.9c1.7,3.4,2.6,7,2.6,10.8c0,7.1-2.8,13.3-8.3,18.4c-5.5,5.2-12.7,7.7-21.4,7.7c-2.7,0-5.3-0.2-7.7-0.6
		c-1.4-0.2-4.4-1.1-8.9-2.6c-4.5-1.5-7.4-2.2-8.6-2.2c-1.1,0-2.1,0.4-2.7,1.1c-0.7,0.7-1.2,2.2-1.5,4.3h-2.6v-32.3h2.6
		c1.2,6.8,2.8,11.8,4.9,15.2c2,3.4,5.2,6.2,9.3,8.4c4.2,2.2,8.8,3.3,13.8,3.3c5.8,0,10.4-1.5,13.7-4.6c3.4-3.1,5-6.7,5-10.9
		c0-2.3-0.6-4.7-1.9-7c-1.3-2.4-3.2-4.6-5.9-6.6c-1.8-1.4-6.8-4.3-14.9-8.8c-8.1-4.5-13.9-8.1-17.3-10.8c-3.4-2.7-6-5.7-7.7-8.9
		c-1.8-3.2-2.6-6.8-2.6-10.7c0-6.8,2.6-12.6,7.8-17.5c5.2-4.9,11.8-7.3,19.8-7.3c5,0,10.3,1.2,15.9,3.7c2.6,1.2,4.4,1.7,5.5,1.7
		c1.2,0,2.2-0.4,3-1.1c0.8-0.7,1.4-2.2,1.8-4.3H324.8z"/>
	<polygon points="91.2,336.9 91.2,340.8 81.3,340.8 81.3,368.6 76.7,368.6 76.7,340.8 66.8,340.8 66.8,336.9 	"/>
	<path d="M94.6,354.8c0.5-1.7,0.9-3.3,2.1-4.6c1.1-1.2,2.8-2,4.4-2c1.5,0,2.5,0.6,3,0.9c2.2,1.4,2.6,3.3,3,5.8H94.6z M111.5,358.1
		c-0.1-2.9-0.2-4.2-0.6-5.6c-0.1-0.6-0.6-2.2-1.6-3.7c-1.7-2.5-3.9-3.3-5-3.6c-1.3-0.3-2.5-0.4-2.9-0.4c-1.6,0-3.1,0.2-4.5,0.9
		c-1.9,0.8-3.1,2.1-3.6,2.7c-2.8,3.2-3,6.8-3,8.3c0,3.6,1.5,7.6,4.3,9.8c2.7,2.4,6.3,2.5,7.5,2.5c2.1,0,3.7-0.3,7.6-1.6v-4.1
		c-2.3,1.1-4.3,2.1-6.9,2.1c-2.7,0-5.5-1.2-6.8-3.6c-0.7-1.3-1.1-3.4-1.2-3.8H111.5z"/>
	<path d="M130.4,349.5c-2.2-0.9-2.9-1-4.2-1c-0.6,0-1.6,0-2.9,0.5c-1.8,0.7-5,2.7-5,7.7c0,0.7,0,2.2,0.7,3.9c1.2,2.9,3.8,4.7,7,4.7
		c1.4,0,2.5-0.2,5-1.3l0.3,3.8c-2.1,0.7-3.8,1.3-6,1.3c-0.9,0-2.8-0.1-4.9-1c-2.5-1.1-6.7-4.2-6.7-11.1c0-1,0-3.4,1.2-5.8
		c1.9-3.9,6.2-6.4,10.5-6.4c1.4,0,2.4,0.2,5,0.9L130.4,349.5z"/>
	<path d="M139.3,334.4v14.2c0.1-0.2,0.8-0.9,1.4-1.5c1.6-1.4,4-2.3,6.2-2.3c0.4,0,1.3,0,2.4,0.3c2,0.6,3.9,2,4.8,3.8
		c0.7,1.3,0.9,2.7,1.1,4.3l0.1,15.4h-4.3c0.1-3.5,0.1-7,0.1-10.5c-0.1-1.5-0.1-3.1-0.2-4.6c-0.1-0.8-0.3-1.5-0.6-2.3
		c-1.1-2.5-3.5-2.8-4.5-2.8c-2,0-3.7,1.1-4.8,2.6c-1.3,1.7-1.4,3.6-1.6,5.7v11.7h-4.3v-34.2H139.3z"/>
	<path d="M166.7,348.6c0.3-0.3,0.8-1.1,1.7-1.8c1.7-1.3,4.1-2,6.2-2c3.9,0,5.9,2.4,6.8,3.7c1.5,2.4,1.5,4.8,1.5,7.5v12.7h-4.2
		l-0.1-15.1c-0.1-0.7-0.4-3.3-2.6-4.5c-0.4-0.2-1.3-0.6-2.5-0.6c-2.9,0-4.6,2.2-5.1,2.9c-1.3,1.9-1.4,3.9-1.4,6.1v11.1h-4.3v-23.3
		h4.1V348.6z"/>
	<path d="M192.2,356.7c0.2-5.2,3.3-7.3,5.2-8c1.1-0.4,1.8-0.5,2.3-0.5c1.7,0,3,0.7,3.5,1c3.5,2.1,3.7,6.1,3.7,7.3s-0.2,5.8-4,8
		c-1.1,0.6-2.3,0.9-3.5,0.9c-0.7,0-2.1-0.1-3.6-1C192.2,362.3,192.2,358.1,192.2,356.7 M187.7,357c0,1.5,0.2,5.9,3.3,9
		c2.9,2.9,6.9,3.1,8.3,3.1c2.3,0,8.5-0.7,11.1-7c0.4-0.8,1-2.7,1-5.2c0-2.4-0.7-8.7-7.2-11.2c-2-0.8-3.7-0.8-4.5-0.8
		c-3.2,0-6.4,1.2-8.6,3.5C188,351.4,187.7,355.6,187.7,357"/>
	<rect x="216.8" y="334.4" width="4.3" height="34.2"/>
	<path d="M231.7,356.7c0.2-5.2,3.3-7.3,5.2-8c1.1-0.4,1.8-0.5,2.3-0.5c1.7,0,3,0.7,3.5,1c3.5,2.1,3.7,6.1,3.7,7.3s-0.2,5.8-4,8
		c-1.1,0.6-2.3,0.9-3.5,0.9c-0.7,0-2.1-0.1-3.6-1C231.6,362.3,231.6,358.1,231.7,356.7 M227.1,357c0,1.5,0.2,5.9,3.3,9
		c2.9,2.9,6.9,3.1,8.3,3.1c2.3,0,8.5-0.7,11.1-7c0.4-0.8,1-2.7,1-5.2c0-2.4-0.7-8.7-7.2-11.2c-2-0.8-3.7-0.8-4.5-0.8
		c-3.2,0-6.4,1.2-8.6,3.5C227.5,351.4,227.1,355.6,227.1,357"/>
	<path d="M258,356.9c0-1.2,0-4.9,3.1-7.3c1.5-1.2,2.8-1.3,3.5-1.3c1.7,0,5,0.9,6.4,5c0.5,1.5,0.6,3.2,0.6,3.7c0,4.7-2.7,6.9-4.3,7.7
		c-0.4,0.2-1.3,0.6-2.6,0.6c-1.6,0-2.8-0.6-3.3-0.9C258.8,363,258,360,258,356.9 M271.8,348.8c-0.8-1.1-1.2-1.6-1.8-2
		c-0.9-0.7-3.1-2-6.2-2c-3,0-4.9,1.2-5.8,1.9c-0.5,0.4-1,0.9-1.5,1.3c-2.3,2.5-3,5.7-3,9.2c0,6.2,2.5,8.9,4.8,10.3
		c2.3,1.4,4.3,1.5,5.3,1.5c2.1,0,4.5-0.7,6.1-2c0.9-0.6,1.5-1.4,1.7-1.7c0.1,2.7,0.3,5.4-1.4,7.7c-1.1,1.5-2.6,2.4-6.3,2.4
		c-2.3,0-3.8-0.4-8-2.1l-0.5,4c1.3,0.4,4.8,1.7,8.8,1.7c3.2,0,7.4-0.9,9.5-3.5c0.8-1,1.2-2.1,1.7-3.3c0.2-0.8,0.4-1.6,0.5-2.5
		c0.2-1.7,0.1-3.8,0.2-7.6c0-5.7,0-11.4,0-17l-4.1,0V348.8z"/>
	<path d="M287,335.1v4.6h-4.7v-4.6H287z M286.8,345.3v23.4h-4.3v-23.4H286.8z"/>
	<path d="M297.2,354.8c0.5-1.7,0.9-3.3,2.1-4.6c1.1-1.2,2.8-2,4.4-2c1.5,0,2.5,0.6,3,0.9c2.2,1.4,2.6,3.3,3,5.8H297.2z M314.1,358.1
		c-0.1-2.9-0.2-4.2-0.5-5.6c-0.1-0.6-0.6-2.2-1.6-3.7c-1.7-2.5-3.9-3.3-5-3.6c-1.3-0.3-2.5-0.4-2.9-0.4c-1.6,0-3.1,0.2-4.5,0.9
		c-1.9,0.8-3.1,2.1-3.6,2.7c-2.8,3.2-3,6.8-3,8.3c0,3.6,1.5,7.6,4.3,9.8c2.7,2.4,6.3,2.5,7.5,2.5c2.1,0,3.7-0.3,7.6-1.6v-4.1
		c-2.3,1.1-4.3,2.1-6.9,2.1c-2.7,0-5.5-1.2-6.8-3.6c-0.7-1.3-1.1-3.4-1.2-3.8H314.1z"/>
	<path d="M330,349.4c-1.7-0.6-3.1-1.1-4.9-1.1c-0.4,0-2.4,0-3.4,1.4c-0.4,0.6-0.5,1.2-0.5,1.4c0,1.8,2,2.8,3.4,3.5
		c0.9,0.5,1.9,0.9,2.9,1.5c0.7,0.4,1.5,0.9,2,1.4c1,1.1,1.6,2.8,1.6,4.4c0,0.5-0.1,2.1-0.9,3.5c-1.4,2.3-4.4,3.5-7.2,3.5
		c-1.7,0-3.2-0.3-6.5-1.4l0.3-3.9c1.9,0.9,3.5,1.7,5.5,1.7c3,0,4.1-1.8,4.1-3.1c0-1-0.6-1.8-0.8-2c-0.5-0.5-1.4-0.9-2.1-1.3
		c-1-0.5-2-1.1-2.9-1.6c-0.2-0.1-1.6-0.9-2.4-1.8c-0.5-0.6-1.5-1.9-1.5-4.2c0-0.6,0-1.8,0.8-3.1c1.3-2.4,4.3-3.4,7.1-3.4
		c2,0,3.8,0.5,5.7,1L330,349.4z"/>
	<path d="M372.2,342.3c-2.8-1.4-4.7-2.1-7.9-2.1c-1.4,0-5.3,0.2-8.6,2.7c-2.9,2.3-4.5,6-4.5,9.8c0,4.2,1.8,8.3,5.2,10.5
		c2,1.3,5,2.2,7.5,2.2c1.9,0,4.2-0.6,4.7-0.7v-9.3h-6.8v-3.7h11.3v16.1c-5,1.2-7,1.5-9.7,1.5c-1.2,0-4,0-7.2-1.3
		c-3.4-1.4-9.8-5.4-9.8-15.2c0-2.1,0.2-7.6,4.5-11.7c1.9-1.8,6-4.7,12.6-4.7c3.3,0,5.8,0.7,9,1.5L372.2,342.3z"/>
	<path d="M383.7,348.6c0.5-0.5,0.9-1.1,1.5-1.6c0.9-0.8,2.4-2.1,5.4-2.1c0.7,0,3.6,0.1,5.3,1.9c0.7,0.7,1.2,1.7,1.7,2.7
		c0.1-0.1,0.8-1.3,1.4-2c1.5-1.6,4.1-2.6,6.3-2.6c3.2,0,5.1,1.9,5.8,2.8c1.7,2,1.7,4.3,1.7,6.9v14.1h-4.1v-1.5l-0.2-12.9
		c0-2-0.1-3.8-1.9-4.9c-0.4-0.3-1.3-0.8-2.7-0.8c-1.6,0-3.1,1-4,2.4c-1.1,1.6-1.3,3.5-1.5,5.5v12.2h-4.3v-14.4
		c-0.1-2.1-0.4-4.4-2.5-5.3c-0.5-0.2-1.3-0.4-1.9-0.4c-2.3,0-3.9,1.5-4.8,3.5c-1.1,2.4-1,4.7-1,7.3v9.2h-4.4v-23.3h4L383.7,348.6z"
		/>
	<path d="M423.4,356.4c0-1.1,0.4-5.1,3.8-7c0.5-0.3,1.7-0.9,3.3-0.9c2.2,0,3.9,1.2,5.1,3.1c1.3,2,1.4,4.2,1.4,5
		c0,2.9-1.2,6.4-3.5,7.9c-0.9,0.6-2.1,0.9-3.3,0.9c-0.8,0-2.4-0.1-3.9-1.4C424.9,362.8,423.1,360.5,423.4,356.4 M419.1,334.4v34.3
		h3.9V365c0.8,0.8,1.3,1.4,2.3,2.1c2.4,1.7,5,1.9,6.1,1.9c4.2,0,6.8-2.6,7.7-3.8c2.5-3,2.5-6.9,2.5-8.1c0-6.5-2.4-9.3-4.9-10.8
		c-2.2-1.3-4.3-1.5-5.2-1.5c-3.4,0-5.9,1.7-6.7,2.6c-0.4,0.3-0.7,0.8-1.3,1.6v-14.6H419.1z"/>
	<polygon points="450.8,336.8 450.8,350.1 466.1,350.1 466.1,336.8 470.5,336.8 470.5,368.8 466.1,368.8 466.1,354 450.9,354 
		450.9,368.6 446.3,368.6 446.3,336.8 	"/>
	<path class="st1" d="M411.5,202.3c3.2,0,5.8,2.6,5.8,5.8c0,3.2-2.6,5.8-5.8,5.8c-3.2,0-5.8-2.6-5.8-5.8
		C405.7,204.9,408.3,202.3,411.5,202.3 M411.5,213c2.6,0,4.6-2.1,4.6-4.9c0-2.7-2-4.9-4.6-4.9c-2.7,0-4.7,2.2-4.7,4.9
		C406.8,210.9,408.8,213,411.5,213 M409.3,204.7h2.6c1.5,0,2.3,0.6,2.3,1.9c0,1.1-0.7,1.9-1.7,1.9l1.9,3h-1.2l-1.9-3h-0.9v3h-1.1
		V204.7z M410.4,207.6h1.3c0.9,0,1.4-0.2,1.4-1c0-0.8-0.7-1-1.4-1h-1.3V207.6z"/>
</g>
</svg>
