<svg width="159" height="56" viewBox="0 0 159 56" fill="none" xmlns="http://www.w3.org/2000/svg">
<path d="M83.482 47.847H68.7323C68.1002 47.847 67.9316 47.6823 67.9316 47.0647V43.4C67.9316 42.7823 68.1002 42.6176 68.7323 42.6176H72.483V25.3235H68.943C68.1002 25.3235 67.9738 25.2 67.9738 24.3764V21.0823C67.9738 20.2588 68.1002 20.1353 68.943 20.1353H78.8042C79.6471 20.1353 79.7735 20.2588 79.7735 21.0823V42.6176H83.5241C84.1562 42.6176 84.3248 42.7823 84.3248 43.4V47.0647C84.2826 47.6411 84.1141 47.847 83.482 47.847Z" fill="#1A1E2C"/>
<path d="M76.0226 16.4708C73.452 16.4708 71.3027 14.4119 71.3027 11.8178C71.3027 9.2237 73.4098 7.20605 76.1069 7.20605C78.6354 7.20605 80.7425 9.34723 80.7425 11.8178C80.7846 14.4119 78.6354 16.4708 76.0226 16.4708Z" fill="#1A1E2C"/>
<path d="M116.058 47.8471H108.936C108.262 47.8471 108.178 47.8059 107.799 47.2706L97.9374 34.1353V42.6177H100.592C101.224 42.6177 101.393 42.7824 101.393 43.4V47.0647C101.393 47.6824 101.224 47.8471 100.592 47.8471H87.7391C87.0648 47.8471 86.9384 47.7236 86.9384 47.0647V43.4C86.9384 42.7824 87.107 42.6177 87.7391 42.6177H90.6469V12.8471H87.4862C86.8541 12.8471 86.6855 12.6824 86.6855 12.0647V8.40003C86.6855 7.78238 86.8541 7.61768 87.4862 7.61768H97.1367C97.7688 7.61768 97.9374 7.78238 97.9374 8.40003V31.1706L105.228 25.1588H102.657C102.025 25.1588 101.857 24.9941 101.857 24.3765V20.9177C101.857 20.3 102.025 20.1353 102.657 20.1353H115.384C116.016 20.1353 116.185 20.3 116.185 20.9177V24.5824C116.185 25.2 116.016 25.3647 115.384 25.3647H112.392L104.259 32.0765L113.235 42.6177H116.101C116.691 42.6177 116.859 42.7824 116.859 43.4V47.0647C116.817 47.6412 116.648 47.8471 116.058 47.8471Z" fill="#1A1E2C"/>
<path d="M139.489 35.8649H124.065C124.191 40.6826 126.172 42.9473 130.428 42.9473C132.535 42.9473 134.811 42.3297 136.96 41.2179C137.255 41.0532 137.55 41.012 137.719 41.012C138.014 41.012 138.182 41.1767 138.351 41.5061L139.784 44.8826C139.952 45.212 139.952 45.2944 139.952 45.5002C139.952 46.1179 139.489 46.4473 137.592 47.2297C135.064 48.3002 132.493 48.7944 129.67 48.7944C126.003 48.7944 123.138 47.8473 121.115 46.0355C118.376 43.5649 116.816 39.3238 116.816 34.2179C116.816 25.1179 121.831 19.1885 129.375 19.1885C136.876 19.1885 140.753 24.3355 140.753 34.5473C140.753 35.6179 140.458 35.8649 139.489 35.8649ZM128.911 24.2532C126.003 24.2532 124.655 26.0649 124.149 30.6355H133.083C132.999 26.0238 131.861 24.2532 128.911 24.2532Z" fill="#1A1E2C"/>
<path d="M146.146 22.4415C145.556 22.8121 144.713 23.018 143.828 23.018C141.637 23.018 140.541 21.5768 140.541 18.6533C140.541 15.7709 141.679 14.2886 143.87 14.2886C144.629 14.2886 145.387 14.4945 145.935 14.8239C146.146 14.9474 146.188 14.9886 146.188 15.0709C146.188 15.1121 146.188 15.1533 146.146 15.1533L145.682 16.0592C145.64 16.1003 145.64 16.1003 145.598 16.1003C145.556 16.1003 145.514 16.1003 145.472 16.0592C144.713 15.6474 144.418 15.565 143.912 15.565C143.449 15.565 142.985 15.7709 142.775 16.1003C142.437 16.5945 142.269 17.4592 142.269 18.5709C142.269 19.6003 142.437 20.5062 142.648 20.9592C142.859 21.3709 143.407 21.618 143.954 21.618C144.249 21.618 144.544 21.5768 144.797 21.4121V19.765H143.87C143.659 19.765 143.617 19.7239 143.617 19.518V18.6945C143.617 18.4886 143.659 18.4474 143.87 18.4474H146.062C146.314 18.4474 146.314 18.4886 146.314 18.6945V22.0709C146.357 22.2768 146.357 22.318 146.146 22.4415Z" fill="#1A1E2C"/>
<path d="M150.361 19.4765H149.729V22.5647C149.729 22.7706 149.687 22.8118 149.476 22.8118H148.296C148.043 22.8118 148.043 22.7706 148.043 22.5647V14.7412C148.043 14.4941 148.085 14.4941 148.296 14.4941H150.319C151.33 14.4941 151.836 14.5765 152.257 14.8236C152.847 15.1941 153.184 15.8941 153.184 16.7588C153.184 18.4059 152.046 19.4765 150.361 19.4765ZM150.192 15.7294H149.687V18.1177H150.024C151.119 18.1177 151.499 17.7883 151.499 16.8824C151.541 16.0177 151.204 15.7294 150.192 15.7294Z" fill="#1A1E2C"/>
<path d="M156.302 22.9766C155.291 22.9766 153.689 22.5237 153.689 22.2355C153.689 22.1943 153.689 22.1531 153.689 22.1119L154.111 21.0825C154.153 21.0002 154.153 20.959 154.237 20.959C154.279 20.959 154.279 20.959 154.364 21.0002C155.122 21.4119 155.712 21.5766 156.26 21.5766C156.976 21.5766 157.398 21.2061 157.398 20.5884C157.398 20.3002 157.314 20.0119 157.145 19.8472C156.934 19.6002 156.766 19.5178 155.712 19.0237C154.237 18.2825 153.774 17.7472 153.774 16.6766C153.774 15.2355 154.827 14.3296 156.513 14.3296C157.482 14.3296 158.873 14.7825 158.873 15.1119C158.873 15.1531 158.873 15.1531 158.831 15.1943L158.367 16.1002C158.325 16.1414 158.283 16.1825 158.241 16.1825C158.199 16.1825 158.199 16.1825 157.777 15.9766C157.356 15.7708 156.934 15.6472 156.555 15.6472C155.881 15.6472 155.417 15.9766 155.417 16.5531C155.417 16.8414 155.586 17.0884 155.881 17.3355C156.049 17.459 156.092 17.459 157.187 17.9943C158.451 18.6119 158.999 19.3531 158.999 20.4649C158.999 21.9884 157.904 22.9766 156.302 22.9766Z" fill="#1A1E2C"/>
<path d="M47.1152 36.9766L57.1028 31.3354C57.2292 30.2237 57.3135 29.1119 57.3135 28.0001C57.3135 19.3943 53.3522 11.7354 47.1152 6.58838V36.9766Z" fill="#1A1E2C"/>
<path d="M27.3915 7.86465L17.4039 2.26465C8.63839 5.88818 2.14856 13.6705 0.462891 23.0588L27.3915 7.86465Z" fill="#1A1E2C"/>
<path d="M29.9199 48.1355L39.9075 53.7767C48.6309 50.112 55.1628 42.3296 56.8485 32.9414L29.9199 48.1355Z" fill="#1A1E2C"/>
<path d="M45.8505 16.8824V5.6C41.0463 2.1 35.1043 0 28.6566 0C25.2431 0 21.9561 0.576471 18.9219 1.64706L45.8505 16.8824Z" fill="#1A1E2C"/>
<path d="M11.4629 39.1177V50.4C16.2671 53.9 22.209 56 28.6567 56C32.0702 56 35.3573 55.4236 38.3915 54.353L11.4629 39.1177Z" fill="#1A1E2C"/>
<path d="M10.1983 19.0234L0.210709 24.6646C0.0842835 25.7352 0 26.847 0 27.9999C0 36.6058 3.96133 44.2646 10.1983 49.4117V19.0234Z" fill="#1A1E2C"/>
<path d="M28.6567 8.60596L11.4629 18.2824V37.6765L28.6567 47.3942L45.8506 37.6765V18.2824L28.6567 8.60596ZM45.0077 36.7295L37.6751 32.6118V22.8942L29.0781 18.0765V9.80007L45.0077 18.7765V36.7295ZM28.6567 18.7765L36.4108 23.1413L28.6567 27.506L20.9026 23.1413L28.6567 18.7765ZM20.4812 23.8824L28.2353 28.2471V36.9765L20.4812 32.6118V23.8824ZM29.0781 28.2471L36.8322 23.8824V32.6118L29.0781 36.9765V28.2471ZM28.2353 9.80007V18.0765L19.6384 22.8942V32.6118L12.3057 36.7295V18.7765L28.2353 9.80007ZM12.7271 37.4707L20.0598 33.353L28.6567 38.1707L37.2536 33.3118L44.5863 37.4295L28.6567 46.4471L12.7271 37.4707Z" fill="#1A1E2C"/>
</svg>
