<?xml version="1.0" encoding="iso-8859-1"?>
<!-- Generator: Adobe Illustrator 16.0.0, SVG Export Plug-In . SVG Version: 6.00 Build 0)  -->
<!DOCTYPE svg PUBLIC "-//W3C//DTD SVG 1.1//EN" "http://www.w3.org/Graphics/SVG/1.1/DTD/svg11.dtd">
<svg version="1.1" id="Capa_1" xmlns="http://www.w3.org/2000/svg" xmlns:xlink="http://www.w3.org/1999/xlink" x="0px" y="0px"
	 width="390.679px" height="390.679px" viewBox="0 0 390.679 390.679" style="enable-background:new 0 0 390.679 390.679;"
	 xml:space="preserve">
<g>
	<g>
		<path d="M319.84,13.988c-39.056,0-70.821,31.771-70.821,70.83c0,36.254,57.826,115.962,64.42,124.933l2.432,3.297
			c0.919,1.261,2.42,2.018,3.97,2.018c1.573,0,3.05-0.757,3.975-2.012l2.427-3.303c6.593-8.971,64.438-88.679,64.438-124.933
			C390.679,45.76,358.9,13.988,319.84,13.988z M319.84,119.928c-16.027,0-29.075-13.037-29.075-29.072s13.042-29.079,29.075-29.079
			c16.038,0,29.081,13.049,29.081,29.079S335.872,119.928,319.84,119.928z"/>
		<path d="M319.84,74.661c-8.923,0-16.189,7.266-16.189,16.201c0,8.929,7.267,16.198,16.189,16.198c8.935,0,16.2-7.269,16.2-16.198
			C336.04,81.921,328.774,74.661,319.84,74.661z"/>
		<path d="M143.185,330.447l-4.422,3.297c28.514-42.544,70.811-112.038,70.811-149.751c0-57.781-47.008-104.79-104.783-104.79
			C47.015,79.204,0,126.206,0,183.993c0,53.645,85.557,171.561,95.309,184.831l3.579,4.882c1.384,1.867,3.579,2.984,5.897,2.984
			c2.317,0,4.512-1.117,5.873-2.973l3.603-4.894c1.297-1.766,3.966-5.429,7.562-10.509c1.813,2.258,4.471,3.471,7.17,3.471
			c1.925,0,3.867-0.601,5.521-1.838l19.696-14.729c4.083-3.044,4.912-8.833,1.876-12.904
			C153.029,328.231,147.256,327.391,143.185,330.447z M104.784,235.938c-23.716,0-43.019-19.293-43.019-43.019
			c0-23.712,19.302-43.015,43.019-43.015c23.716,0,43.006,19.302,43.006,43.015C147.796,216.645,128.506,235.938,104.784,235.938z"
			/>
		<path d="M104.784,168.966c-13.208,0-23.957,10.749-23.957,23.953c0,13.217,10.749,23.966,23.957,23.966
			c13.207,0,23.956-10.749,23.956-23.966C128.746,179.715,117.998,168.966,104.784,168.966z"/>
		<path d="M199.84,288.102l-37.773,28.234c-4.083,3.044-4.924,8.833-1.873,12.916c1.813,2.42,4.584,3.699,7.395,3.699
			c1.925,0,3.858-0.601,5.51-1.837l37.785-28.235c4.083-3.05,4.918-8.833,1.867-12.916
			C209.7,285.886,203.923,285.039,199.84,288.102z"/>
		<path d="M256.513,245.749L218.73,273.99c-4.071,3.044-4.911,8.833-1.861,12.916c1.813,2.414,4.588,3.699,7.398,3.699
			c1.921,0,3.854-0.601,5.506-1.838l37.788-28.234c4.071-3.05,4.912-8.833,1.861-12.916
			C266.367,243.54,260.584,242.687,256.513,245.749z"/>
		<path d="M295.105,216.908l-19.695,14.73c-4.083,3.038-4.912,8.827-1.88,12.904c1.82,2.432,4.588,3.704,7.398,3.704
			c1.928,0,3.855-0.594,5.512-1.837l19.708-14.724c4.083-3.045,4.912-8.827,1.861-12.91
			C304.96,214.692,299.189,213.847,295.105,216.908z"/>
	</g>
</g>
<g>
</g>
<g>
</g>
<g>
</g>
<g>
</g>
<g>
</g>
<g>
</g>
<g>
</g>
<g>
</g>
<g>
</g>
<g>
</g>
<g>
</g>
<g>
</g>
<g>
</g>
<g>
</g>
<g>
</g>
</svg>
